# xmcd
#
# Track frame offsets:
#	180
#	17447
#	32077
#	46187
#	60612
#	75512
#	90175
#	105460
#	122700
#	134347
#	145187
#	162482
#	175200
#
# Disc length: 2500 seconds
#
# Revision: 3
# Processed by: cddbd v1.5.2PL0 Copyright (c) Steve Scherf et al.
# Submitted via: EZCDAudioConverter 6.0.5.1
#
DISCID=9a09c20d
DTITLE=Eddy Raven - Wild Eyed And Crazy
DYEAR=1994
DGENRE=Country
TTITLE0=Wild Eyed And Crazy
TTITLE1=Tequila Tells
TTITLE2=Of All The Things
TTITLE3=Rip Rap Road
TTITLE4=Castaway Heart
TTITLE5=In A Letter
TTITLE6=Sometimes A Lady
TTITLE7=Joe Knows How To Live
TTITLE8=Thank God For Kids
TTITLE9=I Got Mexico
TTITLE10=Island
TTITLE11=Who Do You Know In California
TTITLE12=Bayou Boys
EXTD=
EXTT0=
EXTT1=
EXTT2=
EXTT3=
EXTT4=
EXTT5=
EXTT6=
EXTT7=
EXTT8=
EXTT9=
EXTT10=
EXTT11=
EXTT12=
PLAYORDER=
